PathFileType        4      (X/Y/Z)      C:\Users\u0101727\OneDrive - KU Leuven\reference_data\TRC\gait_61.trc         																																																																																																																																																																																		
DataRate	CameraRate	NumFrames	NumMarkers	Units	OrigDataRate	OrigDataStartFrame	OrigNumFrames																																																																																																																																																																											
100	100	8	59	m	100	311	414																																																																																																																																																																											
Frame#	Time	foot_l1			RSHO			LW2			rad_r2			LELB			LTIB2			LKNE			LTHI2			rad_l2			LTHI3			LANK			RELB			LTIB3			LH			hum_l2			foot_l4			foot_l5			foot_l6			LSHO			RANK_med			Foot_r10			foot_l2			RPSI			LTHI1			hum_r2			LANK_med			LPSI			foot_l7			RTIB3			LTIB1			Foot_r5			foot_l3			Foot_r1			Foot_r2			RTIB2			Foot_r4			RW2			Foot_r7			Foot_r9			RKNE			LW1			Foot_r6			RH			foot_l9			Foot_r8			RTIB1			LASI			foot_l8			RTHI3			RTHI1			RANK			RASI			CLAV			RW1			Foot_r3			LKNE_med			RKNE_med			RTHI2			foot_l10		
		X1	Y1	Z1	X2	Y2	Z2	X3	Y3	Z3	X4	Y4	Z4	X5	Y5	Z5	X6	Y6	Z6	X7	Y7	Z7	X8	Y8	Z8	X9	Y9	Z9	X10	Y10	Z10	X11	Y11	Z11	X12	Y12	Z12	X13	Y13	Z13	X14	Y14	Z14	X15	Y15	Z15	X16	Y16	Z16	X17	Y17	Z17	X18	Y18	Z18	X19	Y19	Z19	X20	Y20	Z20	X21	Y21	Z21	X22	Y22	Z22	X23	Y23	Z23	X24	Y24	Z24	X25	Y25	Z25	X26	Y26	Z26	X27	Y27	Z27	X28	Y28	Z28	X29	Y29	Z29	X30	Y30	Z30	X31	Y31	Z31	X32	Y32	Z32	X33	Y33	Z33	X34	Y34	Z34	X35	Y35	Z35	X36	Y36	Z36	X37	Y37	Z37	X38	Y38	Z38	X39	Y39	Z39	X40	Y40	Z40	X41	Y41	Z41	X42	Y42	Z42	X43	Y43	Z43	X44	Y44	Z44	X45	Y45	Z45	X46	Y46	Z46	X47	Y47	Z47	X48	Y48	Z48	X49	Y49	Z49	X50	Y50	Z50	X51	Y51	Z51	X52	Y52	Z52	X53	Y53	Z53	X54	Y54	Z54	X55	Y55	Z55	X56	Y56	Z56	X57	Y57	Z57	X58	Y58	Z58	X59	Y59	Z59
311	3.11	0.98685	0.060167	0.11958	1.0078	1.377	0.35675	0.96151	0.83705	-0.10645	1.0284	0.94852	0.46654	0.92293	1.0564	-0.048377	1.0557	0.26792	0.039811	1.135	0.46052	0.062023	1.1117	0.67959	-0.0040717	0.97525	0.95756	-0.085453	1.1494	0.63708	0.019191	1.0491	0.072533	0.081977	0.95221	1.0809	0.42282	1.0821	0.21843	0.058692	1.001	0.77526	-0.11085	0.9666	1.2218	-0.04725	1.0856	0.030008	0.084623	1.1613	0.025852	0.071948	1.1846	0.0367	0.11897	0.99618	1.3778	0.0039678	0.76994	0.22025	0.19486	0.74696	0.19551	0.19696	0.98163	0.027285	0.11797	0.91311	0.94674	0.20664	1.1609	0.69187	0.044048	0.97877	1.2293	0.39547	1.043	0.088572	0.16589	0.91306	0.95663	0.15824	1.2137	0.032607	0.1577	0.88505	0.30615	0.30539	1.1153	0.26276	0.070364	0.75534	0.10411	0.30002	1.0519	0.043923	0.090718	0.7179	0.26026	0.23349	0.68453	0.24731	0.23593	0.89417	0.36208	0.3104	0.72699	0.16618	0.27905	1.0358	0.86568	0.48982	0.8041	0.055182	0.2253	0.77877	0.12996	0.20914	1.0819	0.41676	0.30377	1.0212	0.83056	-0.067902	0.78335	0.080916	0.25946	1.0882	0.82631	0.49281	1.1164	0.043066	0.17027	0.7815	0.076544	0.20863	0.94002	0.30578	0.30339	1.0851	0.9357	0.05084	1.1807	0.03651	0.17037	1.0641	0.67533	0.36568	NaN	NaN	NaN	0.74038	0.22516	0.27513	1.0877	0.92377	0.30799	1.0833	1.357	0.16191	1.0911	0.87382	0.4494	0.72603	0.20152	0.26916	NaN	NaN	NaN	1.0487	0.41626	0.18794	1.0237	0.71453	0.37846	1.0444	0.053752	0.16307
312	3.12	0.98698	0.060597	0.11956	1.0183	1.3789	0.35695	0.98438	0.83948	-0.10643	1.034	0.94922	0.46686	0.93997	1.0584	-0.050354	1.0576	0.26828	0.040367	1.1391	0.45971	0.062272	1.122	0.68003	-0.0032036	0.99546	0.96017	-0.085416	1.1587	0.63688	0.020701	1.0492	0.072576	0.08204	0.96107	1.0828	0.42166	1.0831	0.21829	0.058517	1.0259	0.77898	-0.11064	0.98334	1.2242	-0.047805	1.0857	0.030125	0.084721	1.1613	0.025861	0.072013	1.1846	0.036606	0.11903	1.0115	1.3801	0.0040573	0.79934	0.21826	0.19469	0.7774	0.19271	0.19686	0.98129	0.027387	0.11827	0.92516	0.94898	0.20596	1.1703	0.69142	0.046231	0.98866	1.2311	0.39512	1.0432	0.088784	0.16598	0.92555	0.95863	0.15751	1.2138	0.032571	0.15776	0.91318	0.30712	0.30614	1.1169	0.26229	0.070064	0.79056	0.10165	0.29988	1.0521	0.043825	0.090861	0.7459	0.25592	0.23403	0.71288	0.24166	0.23646	0.92131	0.36311	0.31082	0.75922	0.16244	0.27924	1.0393	0.8662	0.49045	0.84105	0.054492	0.22467	0.81217	0.1285	0.20875	1.1073	0.42122	0.30487	1.0436	0.83431	-0.066502	0.81934	0.079876	0.25883	1.0906	0.82536	0.494	1.1164	0.042896	0.17039	0.81709	0.075593	0.20801	0.96811	0.30766	0.30384	1.0981	0.93726	0.051298	1.1808	0.036457	0.17053	1.0793	0.67874	0.36724	NaN	NaN	NaN	0.76999	0.2217	0.27526	1.099	0.92628	0.3085	1.0962	1.3589	0.16308	1.0952	0.87293	0.45072	0.75652	0.19751	0.2694	NaN	NaN	NaN	1.0744	0.41939	0.18906	1.037	0.71691	0.37826	1.0447	0.054275	0.16309
313	3.13	0.98716	0.060802	0.11958	1.0289	1.3807	0.35718	1.0075	0.84197	-0.1063	1.0394	0.95004	0.46713	0.95739	1.0604	-0.051709	1.0585	0.26825	0.040254	1.1427	0.45884	0.062336	1.1331	0.68011	-0.0023288	1.0156	0.96255	-0.084926	1.1679	0.6364	0.022946	1.0493	0.072437	0.08219	0.9696	1.0847	0.42055	1.0844	0.2181	0.058333	1.0513	0.78341	-0.11016	0.99955	1.2265	-0.0483	1.0858	0.03011	0.084863	1.1614	0.025798	0.072034	1.1847	0.036602	0.11906	1.0267	1.3824	0.0043919	0.82934	0.21517	0.1945	0.80887	0.1887	0.19723	0.98131	0.027759	0.11818	0.93735	0.95082	0.20541	1.1794	0.69074	0.048722	0.99842	1.2328	0.39493	1.0435	0.089212	0.16604	0.93797	0.96051	0.15697	1.2138	0.032512	0.15776	0.94097	0.30741	0.30709	1.1183	0.26177	0.06941	0.8268	0.097866	0.29948	1.0521	0.043859	0.090959	0.77444	0.25027	0.23465	0.74189	0.23431	0.23711	0.94768	0.36348	0.31188	0.79217	0.15717	0.27933	1.0426	0.86689	0.49082	0.8792	0.054206	0.22391	0.8462	0.12664	0.20835	1.132	0.42594	0.30635	1.0658	0.83838	-0.065181	0.85657	0.078025	0.25836	1.093	0.82467	0.49517	1.1165	0.042939	0.17049	0.85449	0.073395	0.2073	0.9959	0.30934	0.30489	1.1109	0.93861	0.051741	1.1809	0.036461	0.17055	1.0944	0.68152	0.36812	NaN	NaN	NaN	0.80033	0.21695	0.27556	1.1104	0.92889	0.30902	1.1092	1.3608	0.16434	1.0993	0.87239	0.45197	0.78792	0.19229	0.26963	NaN	NaN	NaN	1.1004	0.42343	0.1897	1.0514	0.71848	0.37699	1.0447	0.054468	0.16308
314	3.14	0.98734	0.061187	0.11971	1.0395	1.3823	0.35742	1.0307	0.84473	-0.10615	1.0447	0.9509	0.46739	0.97472	1.0624	-0.05347	1.0597	0.26823	0.040224	1.1461	0.45789	0.06244	1.1433	0.6797	-0.0012379	1.0358	0.96561	-0.084794	1.1766	0.63556	0.025483	1.0494	0.072592	0.082114	0.97803	1.0867	0.41943	1.0853	0.21813	0.058319	1.0763	0.78779	-0.10949	1.0165	1.2288	-0.048845	1.0859	0.03015	0.084987	1.1614	0.025849	0.072018	1.1848	0.036598	0.11911	1.0417	1.3846	0.0046975	0.86034	0.21071	0.19499	0.84078	0.1832	0.19726	0.98136	0.02809	0.11818	0.94942	0.95291	0.20508	1.188	0.68963	0.051389	1.0079	1.2346	0.39488	1.0436	0.089315	0.16611	0.9504	0.96226	0.15654	1.2139	0.032549	0.15779	0.96861	0.30702	0.30802	1.1198	0.26176	0.069342	0.86417	0.093746	0.29958	1.0523	0.043927	0.091069	0.80352	0.24294	0.23518	0.77171	0.22555	0.23783	0.97357	0.36336	0.31318	0.82611	0.15087	0.27965	1.046	0.86793	0.49136	0.91855	0.05327	0.22325	0.88211	0.12351	0.20849	1.1561	0.43075	0.30773	1.088	0.84226	-0.063728	0.89488	0.0757	0.25801	1.0953	0.82441	0.49644	1.1167	0.043225	0.17069	0.89301	0.071137	0.20694	1.0235	0.31067	0.30609	1.1247	0.94012	0.051855	1.1809	0.036405	0.17057	1.1098	0.68501	0.36953	NaN	NaN	NaN	0.83129	0.21098	0.27611	1.1219	0.93143	0.3093	1.1214	1.3618	0.16532	1.1033	0.87207	0.45318	0.82003	0.1859	0.26999	NaN	NaN	NaN	1.1248	0.42732	0.19154	1.0647	0.72184	0.37746	1.045	0.05477	0.16336
315	3.15	0.98744	0.061755	0.11959	1.0501	1.3837	0.35771	1.0542	0.8475	-0.10594	1.0498	0.95179	0.46769	0.99165	1.0646	-0.055262	1.0618	0.26832	0.040272	1.1495	0.45729	0.062777	1.155	0.67953	-5.04E-04	1.0568	0.9684	-0.084488	1.185	0.63419	0.027698	1.0495	0.072741	0.082176	0.98625	1.0885	0.41835	1.0866	0.21813	0.058469	1.1013	0.79195	-0.10848	1.033	1.2311	-0.049346	1.0859	0.030301	0.085077	1.1615	0.025872	0.072094	1.1849	0.03664	0.11922	1.0565	1.3867	0.0051165	0.89204	0.20535	0.19562	0.87368	0.17674	0.19791	0.98118	0.028623	0.11809	0.96139	0.95478	0.20479	1.1968	0.68841	0.054096	1.0175	1.2362	0.39466	1.0438	0.08987	0.16605	0.96275	0.96396	0.15626	1.214	0.032522	0.15782	0.99623	0.30609	0.30913	1.1215	0.26152	0.069537	0.90237	0.088798	0.29945	1.0524	0.043985	0.091114	0.83324	0.23458	0.23587	0.80247	0.21519	0.2384	0.99894	0.36262	0.31409	0.86103	0.1436	0.28003	1.0492	0.86876	0.49157	0.95892	0.051972	0.22283	0.91836	0.11998	0.20862	1.1796	0.43607	0.30929	1.1105	0.84655	-0.062228	0.93423	0.072848	0.25799	1.0974	0.82422	0.49773	1.1169	0.043406	0.17051	0.93255	0.068356	0.20701	1.0508	0.31282	0.30769	1.1376	0.94208	0.051852	1.181	0.036432	0.17069	1.1247	0.68831	0.37094	NaN	NaN	NaN	0.86313	0.20385	0.27664	1.1332	0.93354	0.30929	1.134	1.3635	0.16684	1.1072	0.87149	0.45443	0.853	0.17841	0.27051	NaN	NaN	NaN	1.1512	0.43123	0.19243	1.079	0.72344	0.37741	1.0451	0.055025	0.16346
316	3.16	0.98757	0.062225	0.11947	1.0606	1.385	0.35799	1.0777	0.85015	-0.10602	1.0548	0.9525	0.4679	1.0092	1.0663	-0.056813	1.0633	0.26854	0.040579	1.1529	0.45662	0.06323	1.1631	0.67857	0.0011148	1.0764	0.9714	-0.084372	1.1928	0.63314	0.029675	1.0498	0.072958	0.082226	0.99442	1.0899	0.41728	1.0882	0.21809	0.058783	1.1264	0.7963	-0.10753	1.0493	1.2333	-0.04978	1.086	0.030399	0.085223	1.1614	0.025839	0.072152	1.185	0.036633	0.11925	1.0711	1.3887	0.00583	0.92441	0.199	0.19628	0.90737	0.16979	0.19841	0.98119	0.029059	0.11806	0.97347	0.95647	0.20464	1.2055	0.68714	0.056014	1.0269	1.2376	0.39452	1.044	0.09009	0.16623	0.97509	0.96543	0.15606	1.2141	0.032507	0.1579	1.0239	0.30468	0.31048	1.1236	0.26119	0.069688	0.94157	0.083425	0.29993	1.0525	0.044028	0.091242	0.86385	0.22486	0.23655	0.8341	0.20379	0.23901	1.0241	0.36123	0.31495	0.89683	0.13563	0.28064	1.0523	0.86939	0.49167	1.0008	0.050475	0.22375	0.95527	0.11568	0.20901	1.2024	0.44158	0.31122	1.1327	0.85076	-0.060843	0.97482	0.069777	0.25882	1.0997	0.82406	0.4989	1.117	0.043493	0.17078	0.97336	0.064837	0.20734	1.0781	0.31378	0.30932	1.1515	0.94246	0.051676	1.1812	0.036649	0.17075	1.1398	0.6917	0.37251	NaN	NaN	NaN	0.89539	0.19594	0.27736	1.1449	0.93555	0.30939	1.1472	1.3653	0.16818	1.1112	0.87129	0.45579	0.88681	0.17012	0.2711	1.1431	0.45224	0.15472	1.1748	0.43526	0.19409	1.0932	0.72558	0.37834	1.045	0.054953	0.16348
317	3.17	0.98771	0.062685	0.11947	1.0712	1.386	0.35828	1.1019	0.8533	-0.10571	1.0599	0.95373	0.46823	1.0261	1.0678	-0.058645	1.0655	0.26879	0.040872	1.1561	0.45616	0.063861	1.1734	0.67841	0.001865	1.0966	0.97416	-0.084258	1.2007	0.63218	0.031151	1.0499	0.073101	0.082391	1.0026	1.0912	0.41621	1.0897	0.21783	0.059432	1.1511	0.8008	-0.10644	1.0657	1.235	-0.050175	1.086	0.030513	0.085437	1.1615	0.025931	0.072221	1.1851	0.036603	0.11936	1.0856	1.3904	0.0064706	0.95718	0.19185	0.197	0.94221	0.16164	0.19925	0.98084	0.029813	0.1178	0.98572	0.95809	0.20456	1.2142	0.6858	0.057459	1.0364	1.2389	0.39436	1.0444	0.090294	0.16651	0.9874	0.96677	0.15586	1.2142	0.032506	0.15795	1.0511	0.30345	0.31175	1.1249	0.26086	0.070797	0.98143	0.077657	0.3009	1.0527	0.044148	0.091373	0.89557	0.2141	0.2373	0.86683	0.19133	0.23957	1.0485	0.35992	0.3157	0.9335	0.12705	0.28153	1.0558	0.8702	0.49196	1.0431	0.048624	0.2251	0.99421	0.11115	0.21082	1.2243	0.44688	0.31282	1.1551	0.85517	-0.059269	1.0157	0.066451	0.25974	1.1021	0.82388	0.50024	1.1172	0.043712	0.17098	1.0142	0.062751	0.20858	1.1052	0.31416	0.31102	1.1639	0.94322	0.05191	1.1813	0.036587	0.17082	1.1547	0.69484	0.37418	NaN	NaN	NaN	0.92852	0.18689	0.27807	1.1566	0.93749	0.3092	1.1597	1.3663	0.16936	1.1153	0.87128	0.45744	0.92137	0.16068	0.27181	1.1453	0.45215	0.15516	1.1975	0.43902	0.19564	1.1073	0.72804	0.37921	1.045	0.055157	0.16346
318	3.18	0.98787	0.063245	0.11953	1.0817	1.3867	0.35862	1.1254	0.85617	-0.10536	1.065	0.95423	0.46862	1.0448	1.069	-0.060009	1.068	0.26894	0.0414	1.1594	0.45569	0.06456	1.1801	0.6778	0.0032931	1.1167	0.97689	-0.084131	1.2083	0.63104	0.032048	1.0501	0.07341	0.082606	1.0108	1.0924	0.41523	1.0914	0.21794	0.059961	1.1761	0.80495	-0.10474	1.0821	1.2369	-0.050304	1.0861	0.030639	0.085612	1.1615	0.025964	0.072362	1.1852	0.036572	0.11941	1.1	1.392	0.0072685	0.99187	0.18349	0.19804	0.97716	0.15286	0.19983	0.98106	0.030192	0.11794	0.99771	0.95951	0.20451	1.2232	0.68426	0.058193	1.0457	1.2396	0.39408	1.0449	0.090692	0.1669	0.99975	0.96795	0.15577	1.2143	0.032525	0.15798	1.0785	0.3009	0.31349	1.1266	0.26074	0.071819	1.0219	0.072172	0.30257	1.0529	0.044347	0.091519	0.92784	0.20248	0.23788	0.90072	0.17794	0.24015	1.0732	0.35674	0.31674	0.97102	0.11808	0.28278	1.059	0.87071	0.49201	1.0858	0.046871	0.22712	1.0325	0.10604	0.2122	1.2453	0.45156	0.31448	1.1774	0.85899	-0.057609	1.0568	0.06353	0.26146	1.1045	0.8237	0.50152	1.1173	0.043672	0.17109	1.0562	0.058919	0.21041	1.1322	0.31413	0.31273	1.1763	0.94376	0.052184	1.1814	0.036585	0.17094	1.1693	0.69754	0.3758	NaN	NaN	NaN	0.96252	0.17736	0.27884	1.1685	0.93918	0.30904	1.1719	1.3668	0.17071	1.1194	0.87094	0.45893	0.95693	0.15094	0.27284	1.1472	0.45176	0.15592	1.2202	0.44306	0.19758	1.1214	0.73048	0.3805	1.0453	0.055353	0.16359
